<svg width="38" height="33" viewBox="0 0 38 33" fill="none" xmlns="http://www.w3.org/2000/svg">
<path d="M4.33317 32.1667C3.32484 32.1667 2.46164 31.7832 1.74359 31.0162C1.02553 30.2492 0.666504 29.3271 0.666504 28.25V4.75004C0.666504 3.67296 1.02553 2.75091 1.74359 1.98389C2.46164 1.21688 3.32484 0.833374 4.33317 0.833374H33.6665C34.6748 0.833374 35.538 1.21688 36.2561 1.98389C36.9741 2.75091 37.3332 3.67296 37.3332 4.75004V28.25C37.3332 29.3271 36.9741 30.2492 36.2561 31.0162C35.538 31.7832 34.6748 32.1667 33.6665 32.1667H4.33317ZM18.9998 18.4584L4.33317 8.66671V28.25H33.6665V8.66671L18.9998 18.4584ZM18.9998 14.5417L33.6665 4.75004H4.33317L18.9998 14.5417ZM4.33317 8.66671V4.75004V28.25V8.66671Z" fill="#1D1B20"/>
</svg>
