<svg width="16" height="15" viewBox="0 0 16 15" fill="none" xmlns="http://www.w3.org/2000/svg">
<path d="M8.25002 1.55005C10.175 1.55005 10.4375 1.55005 11.225 1.55005C11.925 1.55005 12.275 1.72505 12.5375 1.81255C12.8875 1.98755 13.15 2.07505 13.4125 2.33755C13.675 2.60005 13.85 2.86255 13.9375 3.21255C14.025 3.47505 14.1125 3.82505 14.2 4.52505C14.2 5.31255 14.2 5.48755 14.2 7.50005C14.2 9.51255 14.2 9.68755 14.2 10.4751C14.2 11.1751 14.025 11.5251 13.9375 11.7876C13.7625 12.1376 13.675 12.4001 13.4125 12.6626C13.15 12.9251 12.8875 13.1001 12.5375 13.1876C12.275 13.2751 11.925 13.3626 11.225 13.4501C10.4375 13.4501 10.2625 13.4501 8.25002 13.4501C6.23752 13.4501 6.06252 13.4501 5.27502 13.4501C4.57502 13.4501 4.22502 13.2751 3.96252 13.1876C3.61252 13.0126 3.35002 12.9251 3.08752 12.6626C2.82502 12.4001 2.65002 12.1376 2.56252 11.7876C2.47502 11.5251 2.38752 11.1751 2.30002 10.4751C2.30002 9.68755 2.30002 9.51255 2.30002 7.50005C2.30002 5.48755 2.30002 5.31255 2.30002 4.52505C2.30002 3.82505 2.47502 3.47505 2.56252 3.21255C2.73752 2.86255 2.82502 2.60005 3.08752 2.33755C3.35002 2.07505 3.61252 1.90005 3.96252 1.81255C4.22502 1.72505 4.57502 1.63755 5.27502 1.55005C6.06252 1.55005 6.32502 1.55005 8.25002 1.55005ZM8.25002 0.237549C6.23752 0.237549 6.06252 0.237549 5.27502 0.237549C4.48752 0.237549 3.96252 0.412549 3.52502 0.587549C3.08752 0.762549 2.65002 1.02505 2.21252 1.46255C1.77502 1.90005 1.60002 2.25005 1.33752 2.77505C1.16252 3.21255 1.07502 3.73755 0.987518 4.52505C0.987518 5.31255 0.987518 5.57505 0.987518 7.50005C0.987518 9.51255 0.987518 9.68755 0.987518 10.4751C0.987518 11.2626 1.16252 11.7876 1.33752 12.2251C1.51252 12.6626 1.77502 13.1001 2.21252 13.5376C2.65002 13.9751 3.00002 14.1501 3.52502 14.4126C3.96252 14.5876 4.48752 14.675 5.27502 14.7626C6.06252 14.7626 6.32502 14.7626 8.25002 14.7626C10.175 14.7626 10.4375 14.7626 11.225 14.7626C12.0125 14.7626 12.5375 14.5876 12.975 14.4126C13.4125 14.2376 13.85 13.9751 14.2875 13.5376C14.725 13.1001 14.9 12.7501 15.1625 12.2251C15.3375 11.7876 15.425 11.2626 15.5125 10.4751C15.5125 9.68755 15.5125 9.42505 15.5125 7.50005C15.5125 5.57505 15.5125 5.31255 15.5125 4.52505C15.5125 3.73755 15.3375 3.21255 15.1625 2.77505C14.9875 2.33755 14.725 1.90005 14.2875 1.46255C13.85 1.02505 13.5 0.850049 12.975 0.587549C12.5375 0.412549 12.0125 0.325049 11.225 0.237549C10.4375 0.237549 10.2625 0.237549 8.25002 0.237549Z" fill="white"/>
<path d="M8.25002 3.73755C6.15002 3.73755 4.48752 5.40005 4.48752 7.50005C4.48752 9.60005 6.15002 11.2626 8.25002 11.2626C10.35 11.2626 12.0125 9.60005 12.0125 7.50005C12.0125 5.40005 10.35 3.73755 8.25002 3.73755ZM8.25002 9.95005C6.93752 9.95005 5.80002 8.90005 5.80002 7.50005C5.80002 6.18755 6.85002 5.05005 8.25002 5.05005C9.56252 5.05005 10.7 6.10005 10.7 7.50005C10.7 8.81255 9.56252 9.95005 8.25002 9.95005Z" fill="white"/>
<path d="M12.1 4.52505C12.5833 4.52505 12.975 4.1333 12.975 3.65005C12.975 3.1668 12.5833 2.77505 12.1 2.77505C11.6168 2.77505 11.225 3.1668 11.225 3.65005C11.225 4.1333 11.6168 4.52505 12.1 4.52505Z" fill="white"/>
</svg>
