<svg width="15" height="15" viewBox="0 0 15 15" fill="none" xmlns="http://www.w3.org/2000/svg">
<path d="M3.40001 14.5H0.424997L0.424997 5.1375H3.40001V14.5ZM1.9125 3.825C0.950001 3.825 0.25 3.125 0.25 2.1625C0.25 1.2 1.0375 0.5 1.9125 0.5C2.875 0.5 3.575 1.2 3.575 2.1625C3.575 3.125 2.875 3.825 1.9125 3.825ZM14.25 14.5H11.275V9.425C11.275 7.9375 10.6625 7.5 9.78749 7.5C8.91249 7.5 8.03749 8.2 8.03749 9.5125V14.5H5.0625V5.1375H7.8625V6.45C8.125 5.8375 9.17499 4.875 10.6625 4.875C12.325 4.875 14.075 5.8375 14.075 8.725V14.5H14.25Z" fill="white"/>
</svg>
