<svg width="55" height="55" viewBox="0 0 55 55" fill="none" xmlns="http://www.w3.org/2000/svg">
<path d="M27.5002 50.4167C26.9654 50.4167 26.5071 50.2639 26.1252 49.9584C25.7432 49.6528 25.4568 49.2518 25.2658 48.7552C24.5401 46.6164 23.6234 44.6111 22.5158 42.7396C21.4463 40.8681 19.9377 38.6719 17.9897 36.1511C16.0418 33.6302 14.4568 31.224 13.2345 28.9323C12.0505 26.6407 11.4585 23.8716 11.4585 20.625C11.4585 16.1563 13.0054 12.375 16.0991 9.28129C19.2311 6.14935 23.0314 4.58337 27.5002 4.58337C31.9689 4.58337 35.7502 6.14935 38.8439 9.28129C41.9759 12.375 43.5418 16.1563 43.5418 20.625C43.5418 24.1007 42.8734 27.0035 41.5366 29.3334C40.238 31.625 38.7293 33.8976 37.0106 36.1511C34.9481 38.9011 33.3821 41.1927 32.3127 43.0261C31.2814 44.8212 30.422 46.7309 29.7345 48.7552C29.5436 49.29 29.238 49.7101 28.8179 50.0157C28.4359 50.283 27.9967 50.4167 27.5002 50.4167ZM27.5002 26.3542C29.1043 26.3542 30.4602 25.8004 31.5679 24.6927C32.6755 23.5851 33.2293 22.2292 33.2293 20.625C33.2293 19.0209 32.6755 17.665 31.5679 16.5573C30.4602 15.4497 29.1043 14.8959 27.5002 14.8959C25.896 14.8959 24.5401 15.4497 23.4325 16.5573C22.3248 17.665 21.771 19.0209 21.771 20.625C21.771 22.2292 22.3248 23.5851 23.4325 24.6927C24.5401 25.8004 25.896 26.3542 27.5002 26.3542Z" fill="#1D1B20"/>
</svg>
