<svg width="21" height="23" viewBox="0 0 21 23" fill="none" xmlns="http://www.w3.org/2000/svg">
<path d="M10.5 11.025C9.5375 11.025 8.71354 10.6652 8.02813 9.94552C7.34271 9.22583 7 8.36067 7 7.35005C7 6.33942 7.34271 5.47427 8.02813 4.75458C8.71354 4.03489 9.5375 3.67505 10.5 3.67505C11.4625 3.67505 12.2865 4.03489 12.9719 4.75458C13.6573 5.47427 14 6.33942 14 7.35005C14 8.36067 13.6573 9.22583 12.9719 9.94552C12.2865 10.6652 11.4625 11.025 10.5 11.025ZM3.5 18.375V15.8025C3.5 15.2819 3.6276 14.8034 3.88281 14.367C4.13802 13.9306 4.47708 13.5975 4.9 13.3679C5.80417 12.8932 6.72292 12.5372 7.65625 12.2998C8.58958 12.0625 9.5375 11.9438 10.5 11.9438C11.4625 11.9438 12.4104 12.0625 13.3438 12.2998C14.2771 12.5372 15.1958 12.8932 16.1 13.3679C16.5229 13.5975 16.862 13.9306 17.1172 14.367C17.3724 14.8034 17.5 15.2819 17.5 15.8025V18.375H3.5ZM5.25 16.5375H15.75V15.8025C15.75 15.6341 15.7099 15.481 15.6297 15.3432C15.5495 15.2054 15.4438 15.0982 15.3125 15.0216C14.525 14.6082 13.7302 14.2981 12.9281 14.0914C12.126 13.8847 11.3167 13.7813 10.5 13.7813C9.68333 13.7813 8.87396 13.8847 8.07188 14.0914C7.26979 14.2981 6.475 14.6082 5.6875 15.0216C5.55625 15.0982 5.45052 15.2054 5.37031 15.3432C5.2901 15.481 5.25 15.6341 5.25 15.8025V16.5375ZM10.5 9.18755C10.9812 9.18755 11.3932 9.00763 11.7359 8.64778C12.0786 8.28794 12.25 7.85536 12.25 7.35005C12.25 6.84474 12.0786 6.41216 11.7359 6.05231C11.3932 5.69247 10.9812 5.51255 10.5 5.51255C10.0188 5.51255 9.60677 5.69247 9.26406 6.05231C8.92135 6.41216 8.75 6.84474 8.75 7.35005C8.75 7.85536 8.92135 8.28794 9.26406 8.64778C9.60677 9.00763 10.0188 9.18755 10.5 9.18755Z" fill="#410E0B"/>
</svg>
